<?xml version="1.0" encoding="UTF-8"?>
<svg xmlns="http://www.w3.org/2000/svg" version="1.1" width="100" height="100" viewBox="0 0 100 100"><rect x="0" y="0" width="100" height="100" fill="#ffffff"/><g transform="scale(3.448)"><g transform="translate(0,0)"><path fill-rule="evenodd" d="M9 0L9 1L8 1L8 2L9 2L9 3L8 3L8 4L10 4L10 7L11 7L11 4L12 4L12 5L13 5L13 4L16 4L16 5L15 5L15 6L14 6L14 8L13 8L13 6L12 6L12 9L14 9L14 10L11 10L11 11L10 11L10 9L11 9L11 8L6 8L6 9L5 9L5 8L0 8L0 9L2 9L2 10L4 10L4 11L1 11L1 12L0 12L0 14L2 14L2 15L1 15L1 16L0 16L0 21L1 21L1 17L2 17L2 19L3 19L3 17L4 17L4 19L5 19L5 20L3 20L3 21L7 21L7 20L6 20L6 19L7 19L7 18L8 18L8 16L9 16L9 15L10 15L10 14L11 14L11 13L12 13L12 14L14 14L14 13L15 13L15 12L13 12L13 13L12 13L12 11L14 11L14 10L15 10L15 11L16 11L16 12L17 12L17 14L18 14L18 15L19 15L19 14L20 14L20 15L21 15L21 16L20 16L20 17L19 17L19 18L14 18L14 17L18 17L18 16L15 16L15 15L16 15L16 14L15 14L15 15L14 15L14 16L13 16L13 15L12 15L12 17L13 17L13 18L11 18L11 19L10 19L10 18L9 18L9 19L10 19L10 20L9 20L9 21L8 21L8 23L9 23L9 21L10 21L10 20L11 20L11 21L12 21L12 22L13 22L13 23L12 23L12 25L13 25L13 24L14 24L14 25L16 25L16 26L15 26L15 27L14 27L14 28L15 28L15 29L16 29L16 27L18 27L18 28L17 28L17 29L18 29L18 28L21 28L21 29L22 29L22 28L21 28L21 27L19 27L19 26L22 26L22 27L23 27L23 26L24 26L24 28L25 28L25 29L27 29L27 28L28 28L28 26L29 26L29 24L25 24L25 23L27 23L27 22L29 22L29 20L28 20L28 19L27 19L27 16L28 16L28 15L27 15L27 12L28 12L28 11L27 11L27 12L25 12L25 11L24 11L24 10L25 10L25 9L26 9L26 8L25 8L25 9L24 9L24 8L23 8L23 9L22 9L22 8L21 8L21 5L20 5L20 3L21 3L21 0L19 0L19 1L17 1L17 0L16 0L16 1L15 1L15 0L14 0L14 3L13 3L13 4L12 4L12 2L13 2L13 1L11 1L11 2L10 2L10 0ZM19 1L19 2L20 2L20 1ZM15 2L15 3L18 3L18 4L17 4L17 8L18 8L18 9L17 9L17 10L18 10L18 11L17 11L17 12L18 12L18 13L19 13L19 12L22 12L22 13L23 13L23 15L24 15L24 16L22 16L22 17L20 17L20 18L19 18L19 19L17 19L17 20L16 20L16 19L15 19L15 20L14 20L14 19L12 19L12 21L14 21L14 22L16 22L16 23L14 23L14 24L18 24L18 25L17 25L17 26L19 26L19 25L20 25L20 23L19 23L19 22L20 22L20 21L19 21L19 19L21 19L21 20L23 20L23 19L24 19L24 17L26 17L26 16L27 16L27 15L26 15L26 13L25 13L25 12L24 12L24 13L23 13L23 12L22 12L22 11L23 11L23 10L24 10L24 9L23 9L23 10L22 10L22 9L20 9L20 8L19 8L19 7L20 7L20 5L18 5L18 4L19 4L19 3L18 3L18 2ZM10 3L10 4L11 4L11 3ZM8 5L8 7L9 7L9 5ZM15 6L15 7L16 7L16 6ZM18 6L18 7L19 7L19 6ZM27 8L27 9L28 9L28 10L29 10L29 9L28 9L28 8ZM4 9L4 10L5 10L5 11L4 11L4 12L5 12L5 13L4 13L4 14L5 14L5 15L6 15L6 16L4 16L4 15L3 15L3 16L2 16L2 17L3 17L3 16L4 16L4 17L6 17L6 18L7 18L7 17L6 17L6 16L8 16L8 14L9 14L9 11L8 11L8 10L7 10L7 9L6 9L6 10L5 10L5 9ZM15 9L15 10L16 10L16 9ZM18 9L18 10L20 10L20 9ZM6 10L6 11L5 11L5 12L6 12L6 13L7 13L7 14L6 14L6 15L7 15L7 14L8 14L8 13L7 13L7 12L8 12L8 11L7 11L7 10ZM21 10L21 11L22 11L22 10ZM6 11L6 12L7 12L7 11ZM1 12L1 13L2 13L2 14L3 14L3 13L2 13L2 12ZM10 12L10 13L11 13L11 12ZM20 13L20 14L21 14L21 15L22 15L22 14L21 14L21 13ZM24 13L24 14L25 14L25 13ZM28 13L28 14L29 14L29 13ZM22 17L22 18L21 18L21 19L22 19L22 18L23 18L23 17ZM28 17L28 18L29 18L29 17ZM25 19L25 21L26 21L26 20L27 20L27 19ZM17 20L17 21L18 21L18 20ZM21 21L21 24L24 24L24 21ZM10 22L10 24L8 24L8 29L12 29L12 27L13 27L13 26L11 26L11 27L9 27L9 26L10 26L10 25L11 25L11 22ZM22 22L22 23L23 23L23 22ZM18 23L18 24L19 24L19 23ZM22 25L22 26L23 26L23 25ZM24 25L24 26L26 26L26 27L25 27L25 28L27 28L27 25ZM0 0L0 7L7 7L7 0ZM1 1L1 6L6 6L6 1ZM2 2L2 5L5 5L5 2ZM22 0L22 7L29 7L29 0ZM23 1L23 6L28 6L28 1ZM24 2L24 5L27 5L27 2ZM0 22L0 29L7 29L7 22ZM1 23L1 28L6 28L6 23ZM2 24L2 27L5 27L5 24Z" fill="#000000"/></g></g></svg>
