<?xml version="1.0" encoding="UTF-8"?>
<svg xmlns="http://www.w3.org/2000/svg" version="1.1" width="100" height="100" viewBox="0 0 100 100"><rect x="0" y="0" width="100" height="100" fill="#ffffff"/><g transform="scale(3.448)"><g transform="translate(0,0)"><path fill-rule="evenodd" d="M8 0L8 1L10 1L10 0ZM14 0L14 1L13 1L13 2L11 2L11 4L10 4L10 3L9 3L9 2L8 2L8 5L9 5L9 6L8 6L8 7L9 7L9 8L8 8L8 9L7 9L7 8L6 8L6 9L7 9L7 10L5 10L5 9L4 9L4 8L0 8L0 9L3 9L3 11L2 11L2 10L1 10L1 11L2 11L2 12L0 12L0 13L3 13L3 16L1 16L1 18L0 18L0 19L1 19L1 18L4 18L4 13L3 13L3 12L4 12L4 11L7 11L7 12L5 12L5 14L6 14L6 15L5 15L5 17L7 17L7 16L9 16L9 15L8 15L8 14L6 14L6 13L7 13L7 12L8 12L8 13L10 13L10 15L11 15L11 14L12 14L12 16L10 16L10 17L9 17L9 18L6 18L6 19L10 19L10 21L12 21L12 22L11 22L11 23L14 23L14 22L15 22L15 21L19 21L19 22L16 22L16 24L14 24L14 26L13 26L13 24L12 24L12 25L11 25L11 24L10 24L10 27L9 27L9 25L8 25L8 29L11 29L11 28L12 28L12 29L13 29L13 28L12 28L12 26L13 26L13 27L14 27L14 29L16 29L16 28L17 28L17 27L19 27L19 28L20 28L20 29L21 29L21 27L20 27L20 26L21 26L21 25L24 25L24 26L26 26L26 27L27 27L27 29L28 29L28 27L29 27L29 25L28 25L28 27L27 27L27 26L26 26L26 25L27 25L27 24L28 24L28 22L29 22L29 21L27 21L27 18L28 18L28 15L29 15L29 13L27 13L27 12L25 12L25 9L27 9L27 8L24 8L24 10L23 10L23 9L22 9L22 8L21 8L21 6L20 6L20 5L21 5L21 3L20 3L20 2L21 2L21 1L20 1L20 0L16 0L16 3L14 3L14 2L15 2L15 0ZM17 1L17 3L16 3L16 4L17 4L17 3L18 3L18 5L14 5L14 6L13 6L13 7L12 7L12 5L13 5L13 3L12 3L12 5L10 5L10 6L9 6L9 7L10 7L10 8L9 8L9 9L10 9L10 10L8 10L8 12L10 12L10 13L11 13L11 11L13 11L13 9L14 9L14 11L16 11L16 9L17 9L17 12L18 12L18 14L15 14L15 15L14 15L14 14L13 14L13 13L15 13L15 12L12 12L12 14L13 14L13 15L14 15L14 16L12 16L12 17L11 17L11 18L10 18L10 19L11 19L11 20L12 20L12 19L11 19L11 18L12 18L12 17L14 17L14 18L13 18L13 20L14 20L14 21L15 21L15 17L16 17L16 18L17 18L17 17L18 17L18 20L19 20L19 21L20 21L20 20L19 20L19 19L21 19L21 20L23 20L23 19L24 19L24 20L26 20L26 18L25 18L25 17L24 17L24 16L21 16L21 14L22 14L22 15L23 15L23 14L22 14L22 13L24 13L24 14L25 14L25 16L26 16L26 17L27 17L27 15L26 15L26 13L25 13L25 12L22 12L22 11L23 11L23 10L22 10L22 9L20 9L20 10L19 10L19 9L17 9L17 8L16 8L16 6L17 6L17 7L18 7L18 5L19 5L19 4L20 4L20 3L18 3L18 1ZM19 1L19 2L20 2L20 1ZM10 6L10 7L11 7L11 8L12 8L12 7L11 7L11 6ZM14 6L14 7L15 7L15 6ZM19 6L19 8L20 8L20 6ZM14 8L14 9L15 9L15 8ZM28 8L28 10L26 10L26 11L28 11L28 12L29 12L29 11L28 11L28 10L29 10L29 8ZM18 10L18 11L19 11L19 12L20 12L20 13L19 13L19 14L18 14L18 15L20 15L20 14L21 14L21 13L22 13L22 12L20 12L20 11L21 11L21 10L20 10L20 11L19 11L19 10ZM0 14L0 15L2 15L2 14ZM6 15L6 16L7 16L7 15ZM15 15L15 16L16 16L16 17L17 17L17 15ZM18 16L18 17L20 17L20 16ZM21 17L21 19L22 19L22 17ZM3 19L3 20L4 20L4 21L7 21L7 20L5 20L5 19ZM1 20L1 21L2 21L2 20ZM8 20L8 22L9 22L9 23L10 23L10 22L9 22L9 20ZM21 21L21 24L24 24L24 21ZM22 22L22 23L23 23L23 22ZM26 22L26 24L25 24L25 25L26 25L26 24L27 24L27 22ZM17 23L17 24L18 24L18 25L16 25L16 26L14 26L14 27L15 27L15 28L16 28L16 27L17 27L17 26L19 26L19 25L20 25L20 24L19 24L19 23ZM22 27L22 29L24 29L24 28L25 28L25 29L26 29L26 28L25 28L25 27ZM0 0L0 7L7 7L7 0ZM1 1L1 6L6 6L6 1ZM2 2L2 5L5 5L5 2ZM22 0L22 7L29 7L29 0ZM23 1L23 6L28 6L28 1ZM24 2L24 5L27 5L27 2ZM0 22L0 29L7 29L7 22ZM1 23L1 28L6 28L6 23ZM2 24L2 27L5 27L5 24Z" fill="#000000"/></g></g></svg>
