<?xml version="1.0" encoding="UTF-8"?>
<svg xmlns="http://www.w3.org/2000/svg" version="1.1" width="100" height="100" viewBox="0 0 100 100"><rect x="0" y="0" width="100" height="100" fill="#ffffff"/><g transform="scale(3.448)"><g transform="translate(0,0)"><path fill-rule="evenodd" d="M8 0L8 4L9 4L9 5L8 5L8 7L9 7L9 6L10 6L10 9L11 9L11 8L12 8L12 9L13 9L13 8L12 8L12 7L13 7L13 6L14 6L14 8L16 8L16 9L14 9L14 10L13 10L13 11L12 11L12 12L11 12L11 13L9 13L9 12L10 12L10 11L11 11L11 10L9 10L9 12L8 12L8 9L7 9L7 8L4 8L4 9L7 9L7 10L3 10L3 9L2 9L2 8L0 8L0 11L1 11L1 12L0 12L0 13L1 13L1 14L2 14L2 13L1 13L1 12L2 12L2 11L5 11L5 12L6 12L6 13L9 13L9 15L7 15L7 14L6 14L6 15L5 15L5 16L4 16L4 17L5 17L5 18L4 18L4 19L3 19L3 20L0 20L0 21L3 21L3 20L4 20L4 21L5 21L5 20L6 20L6 21L7 21L7 20L6 20L6 19L7 19L7 18L6 18L6 17L7 17L7 16L8 16L8 18L9 18L9 19L8 19L8 22L9 22L9 23L8 23L8 25L9 25L9 26L10 26L10 27L8 27L8 29L9 29L9 28L10 28L10 27L11 27L11 25L10 25L10 24L9 24L9 23L11 23L11 24L12 24L12 25L13 25L13 26L15 26L15 27L14 27L14 28L13 28L13 27L12 27L12 28L11 28L11 29L12 29L12 28L13 28L13 29L16 29L16 28L15 28L15 27L16 27L16 25L17 25L17 26L18 26L18 27L17 27L17 29L21 29L21 27L22 27L22 26L21 26L21 25L23 25L23 27L24 27L24 25L26 25L26 24L25 24L25 23L27 23L27 22L25 22L25 21L26 21L26 20L24 20L24 19L25 19L25 18L26 18L26 19L27 19L27 20L28 20L28 23L29 23L29 17L28 17L28 16L29 16L29 13L28 13L28 12L29 12L29 8L25 8L25 9L24 9L24 8L23 8L23 9L20 9L20 8L19 8L19 6L20 6L20 7L21 7L21 3L20 3L20 5L19 5L19 2L21 2L21 0L20 0L20 1L19 1L19 0L15 0L15 1L14 1L14 0L13 0L13 1L11 1L11 2L12 2L12 5L13 5L13 6L12 6L12 7L11 7L11 3L10 3L10 2L9 2L9 0ZM13 1L13 3L15 3L15 2L16 2L16 1L15 1L15 2L14 2L14 1ZM18 1L18 2L19 2L19 1ZM17 3L17 7L16 7L16 5L15 5L15 7L16 7L16 8L17 8L17 7L18 7L18 6L19 6L19 5L18 5L18 3ZM13 4L13 5L14 5L14 4ZM18 8L18 9L17 9L17 10L16 10L16 11L15 11L15 13L16 13L16 11L18 11L18 13L17 13L17 14L16 14L16 16L15 16L15 15L14 15L14 17L16 17L16 16L17 16L17 14L18 14L18 13L19 13L19 16L18 16L18 17L19 17L19 19L18 19L18 18L16 18L16 19L15 19L15 18L13 18L13 17L12 17L12 16L13 16L13 15L12 15L12 16L9 16L9 17L10 17L10 20L9 20L9 21L11 21L11 22L12 22L12 21L13 21L13 22L15 22L15 21L13 21L13 20L14 20L14 19L15 19L15 20L16 20L16 23L14 23L14 25L16 25L16 23L17 23L17 22L20 22L20 20L21 20L21 18L20 18L20 17L23 17L23 18L24 18L24 17L26 17L26 18L27 18L27 19L28 19L28 18L27 18L27 15L28 15L28 14L27 14L27 15L24 15L24 13L27 13L27 11L28 11L28 10L25 10L25 11L26 11L26 12L24 12L24 11L23 11L23 12L21 12L21 10L20 10L20 9L19 9L19 8ZM23 9L23 10L24 10L24 9ZM18 10L18 11L19 11L19 10ZM6 11L6 12L7 12L7 11ZM13 11L13 12L12 12L12 13L11 13L11 14L12 14L12 13L13 13L13 14L14 14L14 13L13 13L13 12L14 12L14 11ZM19 12L19 13L20 13L20 14L21 14L21 13L20 13L20 12ZM4 13L4 14L5 14L5 13ZM22 13L22 14L23 14L23 13ZM0 15L0 16L2 16L2 17L3 17L3 15ZM6 15L6 16L7 16L7 15ZM21 15L21 16L22 16L22 15ZM23 16L23 17L24 17L24 16ZM0 17L0 18L1 18L1 17ZM4 19L4 20L5 20L5 19ZM12 19L12 20L11 20L11 21L12 21L12 20L13 20L13 19ZM17 19L17 21L18 21L18 19ZM19 19L19 20L20 20L20 19ZM21 21L21 24L24 24L24 21ZM22 22L22 23L23 23L23 22ZM12 23L12 24L13 24L13 23ZM18 23L18 25L19 25L19 27L21 27L21 26L20 26L20 25L19 25L19 24L20 24L20 23ZM27 24L27 25L28 25L28 26L25 26L25 27L27 27L27 29L28 29L28 28L29 28L29 25L28 25L28 24ZM22 28L22 29L23 29L23 28ZM24 28L24 29L25 29L25 28ZM0 0L0 7L7 7L7 0ZM1 1L1 6L6 6L6 1ZM2 2L2 5L5 5L5 2ZM22 0L22 7L29 7L29 0ZM23 1L23 6L28 6L28 1ZM24 2L24 5L27 5L27 2ZM0 22L0 29L7 29L7 22ZM1 23L1 28L6 28L6 23ZM2 24L2 27L5 27L5 24Z" fill="#000000"/></g></g></svg>
